<?xml version="1.0" encoding="UTF-8" standalone="no"?>
<!DOCTYPE svg PUBLIC "-//W3C//DTD SVG 1.1//EN" "http://www.w3.org/Graphics/SVG/1.1/DTD/svg11.dtd">
<svg width="100%" height="100%" viewBox="0 0 16 16" version="1.1" xmlns="http://www.w3.org/2000/svg" xmlns:xlink="http://www.w3.org/1999/xlink" xml:space="preserve" xmlns:serif="http://www.serif.com/" style="fill-rule:evenodd;clip-rule:evenodd;stroke-linejoin:round;stroke-miterlimit:2;">
    <g transform="matrix(1.375,0,0,1.375,-6.66667,-6.62817)">
        <path d="M10.629,5.333C7.921,5.333 8.09,6.508 8.09,6.508L8.093,7.725L10.677,7.725L10.677,8.089L7.065,8.089C7.065,8.089 5.333,7.893 5.333,10.625C5.333,13.357 6.845,13.261 6.845,13.261L7.748,13.261L7.748,11.993C7.748,11.993 7.699,10.481 9.236,10.481L11.799,10.481C11.799,10.481 13.239,10.504 13.239,9.089L13.239,6.749C13.239,6.749 13.458,5.333 10.629,5.333M9.203,6.151C9.458,6.151 9.668,6.361 9.668,6.616C9.668,6.871 9.458,7.081 9.203,7.081C9.203,7.081 9.203,7.081 9.203,7.081C8.948,7.081 8.738,6.872 8.738,6.617C8.738,6.616 8.738,6.616 8.738,6.616C8.738,6.361 8.948,6.151 9.203,6.151" style="fill-rule:nonzero;"/>
        <path d="M10.705,15.944C13.413,15.944 13.244,14.769 13.244,14.769L13.241,13.553L10.657,13.553L10.657,13.188L14.267,13.188C14.267,13.188 16,13.385 16,10.653C16,7.92 14.488,8.017 14.488,8.017L13.585,8.017L13.585,9.285C13.585,9.285 13.634,10.797 12.097,10.797L9.534,10.797C9.534,10.797 8.094,10.773 8.094,12.188L8.094,14.528C8.094,14.528 7.875,15.943 10.705,15.943M12.131,15.125C12.13,15.125 12.13,15.125 12.13,15.125C11.875,15.125 11.665,14.916 11.665,14.661C11.665,14.66 11.665,14.66 11.665,14.66C11.666,14.405 11.875,14.196 12.13,14.196C12.385,14.196 12.595,14.406 12.595,14.661C12.595,14.915 12.385,15.125 12.131,15.125" style="fill-rule:nonzero;"/>
    </g>
</svg>
